<mxfile host="app.diagrams.net" modified="2023-04-24T12:29:39.569Z" agent="Mozilla/5.0 (Windows NT 10.0; Win64; x64) AppleWebKit/537.36 (KHTML, like Gecko) Chrome/112.0.0.0 Safari/537.36" version="21.1.5" etag="bWK_zkDfCXGP-H-gh6Oe" type="github">
  <diagram name="Page-1" id="bf8-wyrrSpo6dcuzy9-D">
    <mxGraphModel>
      <root>
        <mxCell id="0" />
        <mxCell id="1" parent="0" />
      </root>
    </mxGraphModel>
  </diagram>
</mxfile>
